<svg xmlns="http://www.w3.org/2000/svg" xmlns:xlink="http://www.w3.org/1999/xlink" width="98.312" height="23.421" viewBox="0 0 98.312 23.421">
  <defs>
    <clipPath id="clip-path">
      <rect id="Rectangle_2" data-name="Rectangle 2" width="98.312" height="23.421" fill="none"/>
    </clipPath>
  </defs>
  <g id="hazgo-logo-white" transform="translate(0 0)">
    <g id="Group_1" data-name="Group 1" transform="translate(0 0)" clip-path="url(#clip-path)">
      <path id="Path_1" data-name="Path 1" d="M9.451,9.343a.475.475,0,0,0,.475.475h3.527a.475.475,0,0,0,.475-.475V1.459a.759.759,0,0,0-.221-.536,2.852,2.852,0,0,0-4.033,0L.836,9.761a2.851,2.851,0,0,0,0,4.033l4.154,4.154a.319.319,0,0,0,.545-.226V9.852a.756.756,0,0,1,.222-.535l3.15-3.151a.319.319,0,0,1,.545.225Z" transform="translate(0 -0.045)" fill="#fff"/>
      <path id="Path_2" data-name="Path 2" d="M32.3,15.36l-4.154-4.154a.319.319,0,0,0-.544.226V19.3a.756.756,0,0,1-.222.535l-3.151,3.151a.319.319,0,0,1-.544-.225V19.81a.475.475,0,0,0-.475-.475H19.681a.475.475,0,0,0-.475.475v7.885a.757.757,0,0,0,.222.535,2.852,2.852,0,0,0,4.033,0L32.3,19.393a2.852,2.852,0,0,0,0-4.033" transform="translate(-9.755 -5.644)" fill="#fff"/>
      <path id="Path_3" data-name="Path 3" d="M122.346,15.075a3.253,3.253,0,0,1-3.266-3.416,3.28,3.28,0,1,1,6.558,0,3.272,3.272,0,0,1-3.292,3.416m0-9.449a5.948,5.948,0,0,0-6.183,6.034,6.2,6.2,0,0,0,12.391,0,5.968,5.968,0,0,0-6.208-6.034M107.137,15.05a3.29,3.29,0,0,1-3.265-3.391,3.247,3.247,0,0,1,3.265-3.341,3.366,3.366,0,1,1,0,6.732M110.553,7.4a4.7,4.7,0,0,0-3.89-1.77,5.705,5.705,0,0,0-5.709,6.058,5.76,5.76,0,0,0,5.734,6.084,4.776,4.776,0,0,0,3.865-1.8v.175c0,3.316-1.4,4.613-3.64,4.613a3.555,3.555,0,0,1-3.117-1.895l-2.393,1.1a6.025,6.025,0,0,0,5.51,3.416c3.989,0,6.532-2.269,6.532-7.5v-10h-2.892ZM88.886,8.568H94.7l-6.183,6.707v2.244H98.884V14.825H92.6l6.282-6.681V5.875h-10Zm-9.4,6.483a3.291,3.291,0,0,1-3.266-3.391,3.248,3.248,0,0,1,3.266-3.341,3.366,3.366,0,0,1,0,6.732M82.9,7.421a4.656,4.656,0,0,0-3.89-1.8,5.706,5.706,0,0,0-5.71,6.058,5.761,5.761,0,0,0,5.735,6.084,4.628,4.628,0,0,0,3.865-1.82v1.571H85.8V5.875H82.9Zm-16.855-1.8c-1.173,0-3.043.623-3.615,2.019V0H59.541V17.518h2.892V11.435A2.78,2.78,0,0,1,65.4,8.468c1.3,0,2.418.948,2.418,2.793v6.258h2.893V10.986c0-3.391-1.671-5.361-4.662-5.361" transform="translate(-30.242 0)" fill="#fff"/>
    </g>
  </g>
</svg>
